<svg id="Layer_1" data-name="Layer 1" xmlns="http://www.w3.org/2000/svg" viewBox="0 0 60 60">
  <g>
    <rect width="60" height="60" style="fill: #c698dc"/>
    <path d="M36.47,54.94a31.9,31.9,0,0,1-8.94.28A3,3,0,0,0,26,55c-2.58.21-4.39-.72-5.05-3.38-4.57-4.82-5.34-10.52-3.89-16.73,2.07-6.76,6.49-9.59,13.76-8.83a10,10,0,0,1,1.88.7,13.12,13.12,0,0,1-1.68-2.34A3.49,3.49,0,0,0,28,22.75a6.37,6.37,0,0,1-3.36-1.37c-1.76-1.05-1.84-2.66-.14-3.89,1-.73,1.84-1.6,2.79-2.38,3.36-1.5,6.68-1.62,9.86.47,1.29.85,2.92.74,4.18,1.77,2.58,2.12,4.76,4.45,5.41,7.88l.15,1.39a36.13,36.13,0,0,1,0,18.24c-.09,1.74-1.91,2.73-2,4.5,1,2.58.48,3.71-2,4A19.11,19.11,0,0,0,36.47,54.94Z" style="fill: #702fbe"/>
    <path d="M46.74,25.23c-1.62-2.22-2.94-4.67-5.13-6.44-4.15-3.37-8.73-4.73-14-3.06-2.05,1.62-4.87,2.31-6.13,5.1,3.31.94,6.88,1.12,9.69,3.39,0,.91,2.52,1.82,0,2.74-6.61-.72-11.24,2.06-14.11,8-.23-2.75-.08-5.3,2.42-7.21a1.76,1.76,0,0,0-.09-2.95c-3-1.93-1-4.13-.44-6.19.24-.87,1.84-1.65.6-2.53a2.37,2.37,0,0,0-3.53.68c-1.43,2.64-4.51,3.19-6.34,5.29a1.76,1.76,0,0,1-2.53,0c-.21-2,1.21-2.93,2.44-4,9.19-8.17,19.88-9.7,31.5-7.12.5.11,1,.22,1.51.3a54.5,54.5,0,0,1,7.46,2.89c.62.28,1.45.7,1.95-.08s-.16-1.37-.65-1.87A22,22,0,0,0,46,8.56c-1.2-.66-2.81-.92-3.13-2.65,5.37-1,9,1.65,11.9,5.72,1.56,2.18.43,3.64-1.27,5.23s-2.58.59-4.18-.17A31.35,31.35,0,0,0,38.86,13.9a.92.92,0,0,0-1.13.79c-.06.69.42.66,1,.72C43.94,15.88,47,19.6,46.74,25.23Z" style="fill: #ca9fde"/>
    <path d="M42.89,5.91C46,7.6,49.43,8.84,52,11.4c1,1,2.4,2.07,1.29,3.62s-2.54.49-3.83-.11c-2.12-1-4.27-1.91-6.41-2.86A30.24,30.24,0,0,0,24.18,11a5.63,5.63,0,0,1-3.92.06c-1.15-.47-.64-1.58-.91-2.4.38-1.71,2-1.89,3.2-2.64l1.32-.22a56.05,56.05,0,0,1,16.81,0Z" style="fill: #702fbe"/>
    <path d="M19.41,10.1c2,.51,3.83.1,5.85-.17,4.77-.62,9.81-1.44,14.55.57,1.1.46,2.92-.49,3.28,1.55-5.36-1.12-10.76-1.9-16.23-1.14A30.92,30.92,0,0,0,7.18,22a2.63,2.63,0,0,0-.3.08C5.7,22.64,5,25,4,24.17s.76-2.32,1.47-3.4c.89-1.34,2-2.54,3-3.8.66-1.71,2.35-2.47,3.48-3.74,1.42-1,2.94-1.82,4.43-2.69C17.25,10,18.24,9.28,19.41,10.1Z" style="fill: #7333bf"/>
    <path d="M36.47,54.94a4.61,4.61,0,0,1,4.8-2.07c2.65.32,3.93-.79,3.63-3.51,3.06,0,5.52-2.22,8.55-2.34C53,51.17,45,54.92,36.47,54.94Z" style="fill: #7231be"/>
    <path d="M46.85,44.86c.16-2.81-.73-5.72,1-8.38.45-.67-.07-1.51-.46-2.29-1.19-2.42-.45-5-.52-7.57A21.48,21.48,0,0,1,46.85,44.86Z" style="fill: #7535c0"/>
    <path d="M22.55,6l-3,3c-2.37,1.42-4.54,3.3-7.5,3.46-.45-.24-.78-.55-.59-1.13A25.31,25.31,0,0,1,22.55,6Z" style="fill: #7b3ec2"/>
    <path d="M40.68,5.78H23.87A28.66,28.66,0,0,1,40.68,5.78Z" style="fill: #6f2dbd"/>
    <path d="M21,51.66c1.37,2.68,4,3,6.55,3.56a22.13,22.13,0,0,1-11.68-2.71l4,.28C20.66,52.85,21.31,52.75,21,51.66Z" style="fill: #864fc8"/>
    <path d="M12.24,14a16.13,16.13,0,0,1-3.83,3c.39-1.08-2.35-1.72-.42-3,1.43.24,2.27-1.7,3.81-1C12.19,13.18,12.45,13.48,12.24,14Z" style="fill: #ca9fde"/>
    <path d="M11.42,13.14a29.07,29.07,0,0,1-2.48,1.67c-.85.46-1-.14-.95-.84l3.44-2.68.86.81C12.35,12.74,12,13,11.42,13.14Z" style="fill: #8a55ca"/>
    <path d="M30.7,24.4c-3.14-1.54-6.36-2.63-10-2.14-1.62.21-1.39-.83-.67-1.69,2-2.39,4.34-4.34,7.57-4.84a10.75,10.75,0,0,0-1.12,1.42c-.61,1.1-3.19.88-2.36,2.56.69,1.41,2.52,2.18,4.32,2.18a3.07,3.07,0,0,1,3.43,2.68A1,1,0,0,1,30.7,24.4Z" style="fill: #7535c0"/>
    <path d="M30.7,37.29c-.07,1.72-.57,3.45-2.59,3.55s-2.86-1.47-2.92-3.31.56-3.49,2.59-3.59S30.61,35.32,30.7,37.29Z" style="fill: #c99ede"/>
    <path d="M30.7,24.4l1.2.17c.66,1.06,2,1.68,2.14,3.2A5.16,5.16,0,0,1,31.2,27C32.59,25.8,30.88,25.25,30.7,24.4Z" style="fill: #ca9fde"/>
    <path d="M11.42,13.14l.87-1L19.52,9c2.07.57-.63.71-.11,1.14-2.66.8-4.76,2.61-7.17,3.87Z" style="fill: #ca9fde"/>
  </g>
</svg>
